<?xml version="1.0" encoding="UTF-8" standalone="no"?>
<!DOCTYPE svg PUBLIC "-//W3C//DTD SVG 1.1//EN" "http://www.w3.org/Graphics/SVG/1.1/DTD/svg11.dtd">
<svg width="100%" height="100%" viewBox="0 0 378 267" version="1.1" xmlns="http://www.w3.org/2000/svg" xmlns:xlink="http://www.w3.org/1999/xlink" xml:space="preserve" xmlns:serif="http://www.serif.com/" style="fill-rule:evenodd;clip-rule:evenodd;stroke-linecap:round;stroke-linejoin:round;stroke-miterlimit:1.5;">
    <g transform="matrix(1,0,0,1,-1555.4,-1117.84)">
        <g transform="matrix(0.520357,0,0,0.520357,930.229,1020.1)">
            <path d="M1476.81,650.892C1470.04,640.551 1466.39,628.352 1466.2,615.633C1466.09,608.358 1466.98,601.096 1466.98,593.82C1466.99,580.421 1465.97,567.04 1463.98,553.798C1458.22,515.498 1444.08,478.633 1423.04,446.504C1408.44,424.111 1399.11,398.031 1396.71,369.998C1394.12,343.547 1365.6,327.881 1342.36,337.547C1294.07,356.377 1233.14,334.566 1210.96,285.274C1206.07,274.388 1203.49,266.76 1201.91,254.828C1230.23,232.125 1265.73,219.209 1301.55,217.767C1316.11,217.181 1331.72,217.859 1345.73,222.435C1362.73,227.987 1377.29,239.907 1394.6,244.519C1402.73,246.685 1411.51,246.852 1419.77,245.407C1443.87,241.192 1460.52,221.917 1481.14,210.215C1515.33,190.812 1555.62,184.097 1594.08,190.87C1617.47,194.991 1639.98,204.161 1659.75,217.68C1677.1,229.547 1693.17,245.452 1715.32,246.122C1722.44,246.338 1727.62,246.308 1734.33,244.519C1751.64,239.907 1766.21,227.987 1783.2,222.435C1797.21,217.859 1812.82,217.181 1827.38,217.767C1863.2,219.209 1898.7,232.125 1927.02,254.828C1925.44,266.76 1922.87,274.388 1917.97,285.274C1895.79,334.566 1834.87,356.377 1786.58,337.547C1763.33,327.881 1734.82,343.547 1732.22,369.998C1729.82,398.031 1720.49,424.111 1705.89,446.504C1684.85,478.633 1670.71,515.498 1664.95,553.798C1662.96,567.04 1661.94,580.421 1661.95,593.82C1661.95,601.096 1662.84,608.358 1662.73,615.633C1662.54,628.352 1658.89,640.551 1652.12,650.892C1633.76,679.877 1601.35,699.142 1564.47,699.142C1527.58,699.142 1495.18,679.877 1476.81,650.892ZM1604.59,643.919C1603.97,665.714 1587.58,683.138 1564.96,683.228C1545.08,683.306 1526.21,666.992 1525.67,643.919C1525.19,623.408 1543.08,577.246 1543.24,486.567C1519.77,486.351 1474.36,485.543 1440.18,427.913C1406.16,370.559 1414.61,277.568 1495.16,230.105C1509.88,221.435 1524.64,216.494 1547.08,213.487C1519.84,236.749 1513.87,249.122 1497.18,281.186C1489.32,296.289 1482.38,324.514 1482.62,355.672C1482.87,386.801 1484.55,415.166 1502.79,433.959C1515.26,446.796 1527.67,449.277 1543.24,449.882C1543.36,415.975 1540.23,363.868 1540.51,323.181C1540.8,282.783 1543.75,256.565 1553.19,240.709C1567.1,217.348 1592.42,214.101 1610.01,219.767C1623.74,224.19 1633.86,228.176 1654.3,243.73C1709.06,285.405 1723.91,366.872 1689.47,426.884C1654.07,488.593 1611.93,487.001 1589.97,486.567C1590.58,577.105 1605.24,621.014 1604.59,643.919ZM1645.95,362.269C1645.95,329.305 1641.06,303.57 1634.85,288.921C1629.16,275.494 1617.76,262.24 1608.56,264.88C1599.3,267.538 1592.64,278.651 1591.33,284.236C1586.87,303.216 1587.42,339.87 1587.96,377.314C1588.38,406.35 1589.69,435.722 1589.97,449.882C1603.96,449.655 1625.43,446.73 1633.66,430.86C1643.85,411.216 1645.95,394.897 1645.95,362.269Z" style="fill: #453525;stroke-width:0px;"/>
        </g>
    </g>
</svg>
