<?xml version="1.0" encoding="UTF-8" standalone="no"?>
<!DOCTYPE svg PUBLIC "-//W3C//DTD SVG 1.1//EN" "http://www.w3.org/Graphics/SVG/1.1/DTD/svg11.dtd">

<svg clip-rule="evenodd" fill-rule="evenodd" stroke-linejoin="round" stroke-miterlimit="2" viewBox="0 0 393 266" xmlns="http://www.w3.org/2000/svg">
<path style="fill: #453525;" d="m1250.23 744.752h-68.85zm-172.98-228.628v.002c18.27 24.678 80.99 29.39 109.84 29.611-1.29 137.666-15.23 189.917-17.62 197.902-4.41-.837-8.72-2.144-12.93-3.918-7.52-3.173-14.47-7.884-20.29-13.717-11.95-11.97-18.46-28.13-18.71-45.23-.11-7.275.78-14.537.78-21.813.01-13.4-1.01-26.781-3-40.022-5.49-36.531-18.61-71.756-38.07-102.815zm275.96 1.861c-18.83 30.602-31.54 65.151-36.92 100.954-1.99 13.241-3 26.622-3 40.022.01 7.276.89 14.538.78 21.813-.25 17.1-6.76 33.26-18.7 45.23-5.82 5.833-12.78 10.544-20.3 13.717-4.19 1.767-8.48 3.07-12.87 3.907-2.33-9.267-17.88-75.859-17.68-197.891 27 .447 91.07-.451 108.68-27.738zm-160.24-262.977c17.37-2.363 35.09-2.054 52.45 1.003 9.64 1.699 19.14 4.256 28.35 7.622-20.88-7.487-57.36 4.757-74.45 28.816-11.61 16.336-15.24 43.346-15.58 84.965-.35 41.916 3.5 95.598 3.35 130.53-19.14-.623-33.52-5.447-41.94-15.519-18.47-22.101-20.31-60.601-20.15-78.97.17-20.34-3.01-46.298 8.89-83.615 7.17-22.496 25.6-50.867 59.08-74.832zm113.64 158.447c0-33.961-8.56-59.735-13.65-75.566-3.63-11.326-14.27-23.258-25.58-20.538-11.38 2.738-14.62 12.515-16.23 18.269-5.48 19.554-6.08 61.152-5.41 99.727.52 29.913-1.56 58.009-1.22 72.597 17.21-.234 36.86-7.476 46.98-23.826 12.53-20.237 15.11-37.049 15.11-70.663zm-258.29 24.567c.62 4.787 1.26 9.297 1.97 13.59-.84-4.47-1.49-9.003-1.97-13.59zm291.4-135.196c8.2 4.733 16.95 8.134 26.94 8.437 7.13.216 12.3.185 19.01-1.604 17.32-4.611 31.88-16.531 48.87-22.083 14.01-4.576 29.62-5.255 44.18-4.668 35.82 1.442 71.32 14.358 99.64 37.06-1.58 11.932-4.15 19.561-9.05 30.447-22.18 49.292-83.1 71.102-131.39 52.273-23.25-9.666-51.76 6-54.36 32.451-.21 2.528-.49 5.041-.82 7.534.3-2.411.57-4.919.82-7.534 3.51-36.391-20.87-116.607-43.83-132.311zm-291.7 131.978c-2.8-26.247-31.18-41.741-54.324-32.116-48.29 18.829-109.211-2.981-131.391-52.273-4.898-10.886-7.472-18.515-9.051-30.447 28.319-22.702 63.821-35.618 99.635-37.06 14.564-.587 30.175.092 44.182 4.668 16.999 5.552 31.559 17.472 48.869 22.083 8.13 2.167 16.91 2.333 25.17.888 11.96-2.092 22.09-7.893 31.78-14.639l-.01.002c-21.24 17.18-57.4 99.468-54.86 138.894z" fill="#edeedf" transform="matrix(.541031 0 0 .541031 -461.637 -137.125)"/>
</svg>