<?xml version="1.0" standalone="no"?>
<!DOCTYPE svg PUBLIC "-//W3C//DTD SVG 20010904//EN"
 "http://www.w3.org/TR/2001/REC-SVG-20010904/DTD/svg10.dtd">
<svg version="1.0" xmlns="http://www.w3.org/2000/svg"
 width="513.000000pt" height="513.000000pt" viewBox="0 0 513.000000 513.000000"
 preserveAspectRatio="xMidYMid meet">
<metadata>
Created by potrace 1.14, written by Peter Selinger 2001-2017
</metadata>
<g transform="translate(0.000000,513.000000) scale(0.100000,-0.100000)"
fill="#000000" stroke="none">
<path d="M839 5126 c-2 -2 -22 -6 -44 -10 -85 -12 -212 -54 -283 -93 -213
-117 -359 -279 -445 -495 -66 -166 -61 -13 -63 -1938 -2 -1852 -4 -1777 43
-1930 85 -280 327 -524 608 -614 146 -46 92 -45 1925 -43 949 2 1741 6 1760
11 420 93 704 389 769 801 6 36 9 740 8 1790 l-3 1730 -21 75 c-35 124 -70
200 -134 296 -122 182 -286 307 -499 377 -41 14 -93 29 -115 33 -39 8 -3498
18 -3506 10z"/>
</g>
</svg>
