<?xml version="1.0" standalone="no"?>
<!DOCTYPE svg PUBLIC "-//W3C//DTD SVG 20010904//EN"
 "http://www.w3.org/TR/2001/REC-SVG-20010904/DTD/svg10.dtd">
<svg version="1.0" xmlns="http://www.w3.org/2000/svg"
 width="64.000000pt" height="64.000000pt" viewBox="0 0 64.000000 64.000000"
 preserveAspectRatio="xMidYMid meet">
<metadata>
Created by potrace 1.14, written by Peter Selinger 2001-2017
</metadata>
<g transform="translate(0.000000,64.000000) scale(0.100000,-0.100000)"
fill="#000000" stroke="none">
<path d="M235 475 c-44 -23 -53 -24 -79 -13 -41 16 -65 18 -103 7 -52 -16 -58
-33 -25 -70 25 -28 34 -32 81 -31 41 1 53 -2 58 -16 3 -9 18 -46 33 -82 15
-36 30 -88 33 -117 7 -64 11 -71 53 -89 29 -12 39 -12 68 0 41 17 44 22 50 77
6 51 15 81 50 164 l25 60 53 3 c36 2 60 10 75 23 33 32 35 56 4 68 -54 20 -70
21 -114 6 -44 -15 -47 -14 -93 10 -60 32 -106 32 -169 0z m36 -36 c-28 -45
-29 -129 -3 -152 10 -10 22 -14 25 -10 4 3 7 41 7 83 0 77 9 102 41 113 19 6
56 -16 79 -47 43 -59 18 -155 -45 -177 -34 -13 -34 -13 -29 -68 3 -31 7 -61 9
-68 7 -22 -20 -46 -44 -38 -22 7 -22 10 -16 84 l6 77 -33 12 c-63 22 -88 104
-53 172 13 25 64 64 73 55 2 -1 -6 -18 -17 -36z"/>
<path d="M347 423 c-9 -8 -9 -138 0 -146 3 -4 15 0 25 10 13 11 18 30 18 68 0
57 -21 91 -43 68z"/>
</g>
</svg>
