<?xml version="1.0" encoding="UTF-8" standalone="no"?>
<!DOCTYPE svg PUBLIC "-//W3C//DTD SVG 1.1//EN" "http://www.w3.org/Graphics/SVG/1.1/DTD/svg11.dtd">
<svg width="100%" height="100%" viewBox="0 0 278 203" version="1.1" xmlns="http://www.w3.org/2000/svg" xmlns:xlink="http://www.w3.org/1999/xlink" xml:space="preserve" xmlns:serif="http://www.serif.com/" style="fill-rule:evenodd;clip-rule:evenodd;stroke-linecap:round;stroke-linejoin:round;stroke-miterlimit:1.5;">
    <g transform="matrix(2.08333,0,0,2.08333,-1390.48,-1180.69)">
        <g id="Genome">
            <g transform="matrix(0.969847,0.243714,-0.208555,0.829936,149.275,-66.6432)">
                <path d="M676.92,597.618C673.282,606.722 672.269,617.481 675.517,626.933" style="fill:none;stroke:rgb(213,163,78);stroke-width:12.89px;"/>
            </g>
            <g transform="matrix(-0.976012,-0.217716,0.194715,-0.8729,1331.2,1323.01)">
                <path d="M676.92,597.618C671.704,608.768 671.861,618.166 675.517,626.933" style="fill:none;stroke:rgb(213,163,78);stroke-width:12.65px;"/>
            </g>
            <g transform="matrix(1,0,0,1,-44.4005,-34.5941)">
                <path d="M795.622,628.81C807.387,635.715 825.027,646.859 826.336,661.486C827.277,671.993 820.21,680.451 813.297,685.193C797.093,696.308 772.129,695.35 759.92,685.193C748.322,675.545 738.758,661.226 735.926,643.469C732.569,622.416 742.136,603.329 758.459,604.363C774.442,605.376 778.197,618.871 772.118,633.083C765.114,649.457 767.383,674.088 782.588,685.193C790.836,691.217 798.456,695.381 812.776,695.381C827.096,695.381 839.207,683.788 839.207,669.925C839.207,656.062 827.575,644.408 813.26,644.807C784.176,645.618 784.91,681.445 752.491,683.181C733.3,684.209 717.669,668.076 717.669,649.47C717.669,630.865 730.303,616.401 749.522,616.401C768.742,616.401 782.82,621.296 795.622,628.81Z" style="fill:none;stroke:rgb(213,163,78);stroke-width:6px;"/>
            </g>
        </g>
    </g>
</svg>
