<?xml version="1.0" encoding="UTF-8" standalone="no"?>
<!DOCTYPE svg PUBLIC "-//W3C//DTD SVG 1.1//EN" "http://www.w3.org/Graphics/SVG/1.1/DTD/svg11.dtd">
<svg width="100%" height="100%" viewBox="0 0 427 307" version="1.1" xmlns="http://www.w3.org/2000/svg" xmlns:xlink="http://www.w3.org/1999/xlink" xml:space="preserve" xmlns:serif="http://www.serif.com/" style="fill-rule:evenodd;clip-rule:evenodd;stroke-linejoin:round;stroke-miterlimit:2;">
  <defs>
    <style type="text/css"><![CDATA[
        path {
            fill: #453525;
        }
    ]]></style>
  </defs>
    <g transform="matrix(1,0,0,1,-1762.89,-840.25)">
        <g transform="matrix(1,0,0,1,6.05285,2045)">
            <g id="inline-logo" transform="matrix(0.560835,0,0,0.560835,1480.83,-1322.21)">
                <g transform="matrix(1,0,0,1,-585.554,29.4499)">
                    <path d="M1106.69,278.251C1119.2,267.919 1133.32,259.718 1148.33,253.877C1163.54,247.957 1179.6,244.302 1195.82,243.361C1203.72,242.585 1211.95,242.079 1220.1,242.589C1225.23,242.91 1230.31,243.373 1235.21,244.611C1248.71,248.045 1260.87,255.511 1273.99,260.1C1277.83,261.445 1281.69,262.656 1285.71,263.446C1290.54,264.466 1295.49,264.968 1300.47,264.906C1305.33,264.845 1310.18,264.417 1314.88,263.425C1322.99,261.711 1330.31,258.605 1337.18,254.577C1351.45,246.211 1363.66,233.947 1377.91,225.281C1394.19,215.513 1411.95,208.606 1430.38,205.137C1448.98,201.638 1468.18,201.592 1486.93,204.711C1498.3,206.894 1509.44,210.262 1520.09,214.869C1530.65,219.44 1540.67,225.26 1550.05,232.039C1560.45,239.606 1570.37,248.558 1581.47,254.891C1589.73,259.603 1598.64,262.804 1608.7,263.433C1613.38,263.738 1617.29,263.855 1621.27,263.587C1624.11,263.396 1626.97,262.953 1630.14,262.234C1634.06,261.347 1637.83,260.052 1641.58,258.663C1654.65,253.817 1666.85,246.34 1680.36,242.781C1686.66,241.181 1693.23,240.659 1699.84,240.52C1706.79,240.374 1713.71,240.977 1720.42,241.716C1730.23,242.805 1739.75,245.262 1749.27,247.952C1755.52,249.719 1761.74,251.629 1767.8,253.99C1782.8,259.831 1796.95,267.952 1809.49,278.251C1817.16,284.406 1828.4,283.17 1834.55,275.491C1840.71,267.813 1839.47,256.582 1831.79,250.427C1816.05,238.12 1798.44,228.377 1779.74,221.785C1772.27,219.151 1764.68,216.814 1756.9,215.361C1745.24,213.18 1733.41,212.483 1721.59,212.84C1712.08,213.115 1702.27,213.779 1692.67,215.659C1686.01,216.965 1679.48,218.617 1673.28,221.111C1661.15,225.913 1650.5,233.814 1639.03,240.059C1634.78,242.374 1630.4,244.403 1625.77,245.825C1622.98,246.683 1620.52,247.217 1617.98,247.476C1615.23,247.757 1612.43,247.821 1609.18,247.834C1601.47,247.848 1594.54,245.752 1588.02,242.546C1577.02,237.133 1567.07,229.009 1556.68,222.343C1546.32,215.643 1535.28,210.115 1523.83,205.71C1512.38,201.307 1500.54,197.988 1488.46,196.051C1468.71,192.377 1448.48,192.341 1428.71,195.367C1408.88,198.404 1389.51,204.587 1371.61,214.171C1357.01,221.886 1344.28,233.378 1329.65,240.721C1324.12,243.496 1318.28,245.525 1311.9,246.411C1308.34,246.906 1304.67,247.022 1301.04,246.75C1297.51,246.486 1294.06,245.69 1290.73,244.613C1287.76,243.609 1284.97,242.271 1282.18,240.861C1269.03,234.193 1257.2,224.795 1243.49,219.282C1235.66,216.115 1227.31,214.178 1218.81,212.881C1210.7,211.645 1202.49,211.317 1194.52,211.195C1174.82,211.64 1155.15,215.31 1136.47,221.899C1117.78,228.492 1100.14,238.158 1084.38,250.427C1076.7,256.582 1075.47,267.813 1081.62,275.491C1087.78,283.17 1099.01,284.406 1106.69,278.251Z" style="fill:rgb(40,22,2);"/>
                </g>
                <g transform="matrix(1,0,0,1,-585.554,29.4499)">
                    <path d="M1802.96,261.999C1802.6,266.943 1802.17,271.019 1801.21,275.002C1800.19,279.228 1798.9,283.367 1797.04,288.24C1788.76,309.985 1772.12,326.448 1751.97,335.707C1730.38,345.624 1705.41,348.08 1682.67,340.721C1679.17,339.358 1675.22,341.09 1673.86,344.587C1672.5,348.085 1674.23,352.031 1677.73,353.395C1703.54,365.253 1733.37,365.598 1760.23,356.905C1788.02,347.912 1811.94,328.489 1826.13,301.331C1829.28,295.319 1831.56,290.161 1833.52,284.858C1835.56,279.351 1836.97,273.652 1838.32,266.679C1839.61,256.923 1832.74,247.954 1822.98,246.662C1813.22,245.371 1804.26,252.243 1802.96,261.999Z" style="fill:rgb(40,22,2);"/>
                </g>
                <g transform="matrix(1,0,0,1,-585.554,29.4499)">
                    <path d="M1682.21,342.221C1668.93,335.453 1653.62,336.698 1640.89,342.955C1627.58,349.497 1617.86,362.24 1615,378.444C1614.99,378.49 1614.99,378.535 1614.98,378.58C1613.04,391.36 1609.35,403.444 1604.59,414.979C1599.79,426.603 1593.59,437.403 1586.28,447.387C1580.45,455.754 1574.92,464.385 1570.21,473.488C1565.52,482.565 1561.54,492.028 1558.2,501.709C1551.56,520.946 1547.43,540.999 1545.36,561.324C1544.74,568.332 1544.31,575.32 1544.2,582.353C1544.1,589.36 1544.2,596.336 1544.62,603.337L1546.7,625.001C1546.94,630.482 1546.57,635.881 1545.34,641.082C1544.08,646.417 1542.2,651.553 1539.47,656.294C1539.45,656.326 1539.43,656.357 1539.41,656.389C1531.34,670.734 1519.97,683.104 1505.82,691.644C1491.88,700.061 1475.52,704.788 1458.09,705.235C1440.69,704.645 1424.37,699.848 1410.56,691.267C1396.62,682.605 1385.66,670.054 1377.9,655.669C1377.88,655.632 1377.85,655.595 1377.83,655.558C1375.24,650.891 1373.53,645.845 1372.39,640.616C1371.29,635.538 1371.15,630.295 1371.49,624.971L1374,603.338C1374.56,596.263 1374.8,589.233 1374.79,582.142C1374.77,575.03 1374.32,567.973 1373.74,560.884C1372.71,550.644 1371.26,540.472 1368.91,530.472C1366.55,520.457 1363.32,510.661 1359.59,501.093C1352.11,481.917 1342.24,463.752 1330.7,446.825C1323.8,436.788 1318.04,425.878 1313.67,414.261C1309.38,402.84 1306.24,390.827 1304.76,378.274C1304.76,378.214 1304.75,378.154 1304.75,378.094C1303.64,369.628 1300.8,361.989 1296.44,355.484C1291.97,348.816 1286.2,343.174 1279.43,339.117C1273.13,335.135 1264.78,337.02 1260.8,343.324C1256.81,349.629 1258.7,357.98 1265,361.963C1268.21,364.093 1270.89,366.981 1272.89,370.347C1274.71,373.423 1275.66,377.033 1275.92,380.924C1276.72,395.893 1279.47,410.551 1283.84,424.527C1288.36,438.944 1294.8,452.526 1302.61,465.177C1302.62,465.186 1302.62,465.196 1302.63,465.205C1312.21,480.453 1319.89,496.877 1326.22,513.826C1329.37,522.258 1332.08,530.85 1334.61,539.506C1337.14,548.187 1339.68,556.851 1341.47,565.735C1342.82,571.927 1343.98,578.118 1344.91,584.387C1345.85,590.695 1346.71,596.961 1347.21,603.325L1348.15,625.318C1348.84,632.655 1350.27,639.745 1352.84,646.448C1355.41,653.17 1358.67,659.542 1363.03,665.248C1374.05,680.192 1388.66,692.147 1405.55,700.35C1421.44,708.07 1439.18,712.711 1458.09,712.071C1476.95,712.554 1494.66,707.877 1510.42,699.973C1527.03,691.638 1541.36,679.512 1552.08,664.417C1556.2,658.866 1559.38,652.603 1561.78,645.982C1564.16,639.406 1565.48,632.45 1566,625.288L1566.52,603.326C1566.9,596.905 1567.58,590.543 1568.44,584.175C1569.3,577.829 1570.45,571.56 1571.78,565.295C1575.37,547.34 1581.29,530.033 1588.34,513.211C1591.85,504.843 1595.74,496.664 1599.8,488.575C1603.88,480.464 1607.98,472.381 1612.73,464.669C1612.73,464.661 1612.74,464.652 1612.75,464.643C1620.12,451.848 1626.22,438.267 1630.25,423.809C1634.12,409.884 1636.4,395.409 1636.7,380.438C1636.9,370.547 1641.7,362.039 1649.11,356.852C1657.4,351.042 1668.08,348.58 1678.19,351.895C1680.86,353.006 1683.92,351.74 1685.04,349.07C1686.14,346.4 1684.88,343.331 1682.21,342.221Z" style="fill:rgb(40,22,2);"/>
                </g>
                <g transform="matrix(1,0,0,1,-585.554,29.4499)">
                    <path d="M1279.63,338.807C1271.93,335.522 1263.99,333.277 1255.61,333.624C1247.75,333.95 1239.9,335.191 1232.75,339.296C1226.27,342.395 1219.41,345.024 1212.21,346.272C1204.91,347.536 1197.43,347.497 1190.05,346.865C1173.59,344.22 1157.78,337.497 1144.68,327.114C1132.44,317.418 1123.4,304.194 1118.04,288.733C1116.33,283.729 1115.22,279.511 1114.35,275.19C1113.53,271.124 1113.37,267.014 1113.21,261.999C1111.92,252.243 1102.95,245.371 1093.19,246.662C1083.44,247.954 1076.57,256.923 1077.86,266.679C1079.48,273.61 1081.02,279.23 1083.27,284.67C1085.43,289.889 1087.79,294.947 1091.13,300.838C1101.47,319.233 1116.07,333.648 1133.57,343.592C1150.48,353.201 1169.44,359.129 1188.83,359.719C1197.18,360.595 1205.59,360.273 1213.95,359.524C1222.43,358.764 1230.82,357.423 1239.03,354.891C1239.09,354.868 1239.15,354.845 1239.2,354.821C1244,353.508 1248.8,353.997 1253.4,355.151C1257.85,356.269 1261.37,359.24 1264.81,362.273C1271.28,366.364 1279.86,364.428 1283.95,357.952C1288.04,351.476 1286.11,342.897 1279.63,338.807Z" style="fill:rgb(40,22,2);"/>
                </g>
                <g id="fi" transform="matrix(1,0,0,1,-911.576,38.9609)">
                    <path d="M1769.13,667.95C1769.13,666.432 1769.78,489.604 1769.78,489.604C1727.56,486.511 1696.13,474.274 1675.47,452.893C1654.82,431.512 1644.49,399.895 1644.49,358.042C1644.49,317.464 1652.05,286.211 1667.15,264.284C1682.25,242.357 1721.48,221.775 1769.28,221.567C1731.31,240.839 1717.17,254.612 1705.23,277.658C1692.4,302.406 1693.9,321.103 1693.9,356.405C1693.9,391.342 1699.99,417.864 1712.19,435.97C1724.38,454.075 1743.58,465.221 1769.78,469.406L1769.78,302.36C1769.78,276.521 1775.33,256.596 1786.43,242.584C1797.53,228.573 1813.36,221.567 1833.92,221.567C1862.49,221.567 1884.6,232.531 1900.25,254.458C1915.9,276.385 1923.72,308.547 1923.72,350.946C1923.72,392.252 1912.99,424.824 1891.52,448.662C1870.04,472.5 1839.11,486.238 1798.71,489.877C1798.71,489.877 1799.09,666.801 1799.09,667.95C1799.09,676.204 1792.38,682.905 1784.11,682.905C1775.84,682.905 1769.13,676.204 1769.13,667.95ZM1874.87,354.767C1874.87,318.556 1870.86,290.988 1862.86,272.063C1854.85,253.138 1843.57,243.676 1829.01,243.676C1808.81,243.676 1798.71,263.238 1798.71,302.36L1798.71,468.86C1824.73,465.039 1843.93,453.893 1856.3,435.424C1868.68,416.954 1874.87,390.069 1874.87,354.767Z" style="fill:rgb(40,22,2);fill-rule:nonzero;"/>
                </g>
            </g>
        </g>
    </g>
</svg>

